# AST/ASF file generated using VICON BodyLanguage
# -----------------------------------------------
:version 1.10
:name VICON
:units
  mass 1.0
  length 0.45
  angle deg
:documentation
   .ast/.asf automatically generated from VICON data using
   VICON BodyBuilder and BodyLanguage model FoxedUp or BRILLIANT.MOD
:root
   order TX TY TZ RX RY RZ
   axis XYZ
   position 0 0 0  
   orientation 0 0 0 
:bonedata
  begin
     id 1 
     name lhipjoint
     direction 0.627457 -0.725269 0.283342 
     length 2.53237 
     axis 0 0 0  XYZ
  end
  begin
     id 2 
     name lfemur
     direction 0.34202 -0.939693 0  
     length 7.32496  
     axis 0 0 20  XYZ
    dof rx ry rz
    limits (-160.0 20.0)
           (-70.0 70.0)
           (-60.0 70.0)
  end
  begin
     id 3 
     name ltibia
     direction 0.34202 -0.939693 0   
     length 7.69674   
     axis 0 0 20   XYZ
    dof rx
    limits (-10.0 170.0)
  end
  begin
     id 4 
     name lfoot
     direction 0.127289 -0.349722 0.928166   
     length 1.8612   
     axis -90 7.62852e-016 20   XYZ
    dof rx rz
    limits (-45.0 90.0)
           (-70.0 20.0)
  end
  begin
     id 5 
     name ltoes
     direction 1.53561e-011 -4.21864e-011 1   
     length 0.925608   
     axis -90 7.62852e-016 20   XYZ
    dof rx
    limits (-90.0 20.0)
  end
  begin
     id 6 
     name rhipjoint
     direction -0.609094 -0.738725 0.288599   
     length 2.48624  
     axis 0 0 0  XYZ 
  end
  begin
     id 7 
     name rfemur
     direction -0.34202 -0.939693 0   
     length 7.44259   
     axis 0 0 -20   XYZ
    dof rx ry rz
    limits (-160.0 20.0)
           (-70.0 70.0)
           (-70.0 60.0)
  end
  begin
     id 8 
     name rtibia
     direction -0.34202 -0.939693 0   
     length 7.7781   
     axis 0 0 -20   XYZ
    dof rx
    limits (-10.0 170.0)
 end
 begin
     id 9 
     name rfoot
     direction -0.107015 -0.294021 0.949789   
     length 2.14741  
     axis -90 -7.62852e-016 -20   XYZ
    dof rx rz
    limits (-45.0 90.0)
           (-20.0 70.0)
  end
  begin
     id 10 
     name rtoes
     direction -1.53497e-011 -4.21924e-011 1   
     length 1.0706   
     axis -90 -7.62852e-016 -20   XYZ
    dof rx
    limits (-90.0 20.0)
  end
  begin
     id 11 
     name lowerback
     direction -0.0142066 0.998112 -0.0597545   
     length 1.86627   
     axis 0 0 0   XYZ
    dof rx ry rz
    limits (-20.0 45.0)
           (-30.0 30.0)
           (-30.0 30.0)
  end
  begin
     id 12 
     name upperback
     direction 0.00547294 0.999744 0.0219437   
     length 1.86272   
     axis 0 0 0   XYZ
    dof rx ry rz
    limits (-20.0 45.0)
           (-30.0 30.0)
           (-30.0 30.0)
  end
  begin
     id 13 
     name thorax
     direction 0.0116162 0.998704 0.0495538   
     length 1.8703   
     axis 0 0 0   XYZ
    dof rx ry rz
    limits (-20.0 45.0)
           (-30.0 30.0)
           (-30.0 30.0)
  end
  begin
     id 14 
     name lowerneck
     direction -0.0106574 0.998739 0.0490586   
     length 1.8074   
     axis 0 0 0   XYZ
    dof rx ry rz
    limits (-20.0 45.0)
           (-30.0 30.0)
           (-30.0 30.0)
  end
  begin
     id 15 
     name upperneck
     direction 0.030527 0.976587 -0.212944   
     length 1.80681   
     axis 0 0 0   XYZ
    dof rx ry rz
    limits (-20.0 45.0)
           (-30.0 30.0)
           (-30.0 30.0)
  end
  begin
     id 16
     name head
     direction 0.00869225 0.997035 -0.0764531  
     length 1.8313  
     axis 0 0 0   XYZ
    dof rx ry rz
    limits (-20.0 45.0)
           (-30.0 30.0)
           (-30.0 30.0)
  end
  begin
     id 17 
     name lclavicle
     direction 0.915958 0.399447 0.0382386  
     length 3.78965  
     axis 0 0 0   XYZ
    dof ry rz
    limits (-20.0 10.0)
           (0.0 20.0)
  end
  begin
     id 18 
     name lhumerus
     direction 1 -4.48967e-011 3.19303e-027   
     length 4.78095   
     axis -180 -30 -90   XYZ
    dof rx ry rz
    limits (-60.0 90.0)
           (-90.0 90.0)
           (-90.0 90.0)
  end
  begin
     id 19
     name lradius
     direction 1 -4.48967e-011 -3.77974e-027   
     length 3.58615   
     axis -180 -30 -90   XYZ
    dof rx
    limits (-10.0 170.0)
  end
  begin
     id 20
     name lwrist
     direction 1 -4.48927e-011 1.2807e-027   
     length 1.79307   
     axis 1.91374e-015 90 90   XYZ
    dof ry
    limits (-180.0 0.0)
 end
  begin
     id 21 
     name lhand
     direction 1 -4.49036e-011 2.5614e-027   
     length 0.659812   
     axis -1.63439e-015 90 90   XYZ
    dof rx rz
    limits (-90.0 90.0)
           (-45.0 45.0)
  end
  begin
     id 22 
     name lfingers
     direction 1 -4.49052e-011 5.1228e-027   
     length 0.531957   
     axis -3.26879e-015 90 90   XYZ
    dof rx
    limits (0.0 90.0)
  end
  begin
     id 23
     name lthumb
     direction 0.707107 -6.35012e-011 0.707107   
     length 0.763787   
     axis -90 45 2.85299e-015   XYZ
    dof rx rz
    limits (-45.0 45.0)
           (-45.0 45.0)
  end
  begin
     id 24 
     name rclavicle
     direction -0.895351 0.435135 0.0948887   
     length 3.70497  
     axis 0 0 0   XYZ 
    dof ry rz
    limits (-10.0 20.0)
           (-20.0 0.0)
  end
  begin
     id 25 
     name rhumerus
     direction -1 -4.48971e-011 2.38946e-027  
     length 4.48913   
     axis -180 30 90   XYZ
    dof rx ry rz
    limits (-90.0 60.0)
           (-90.0 90.0)
           (-90.0 90.0)
  end
  begin
     id 26 
     name rradius
     direction -1 -4.4895e-011 4.38668e-027   
     length 3.7051   
     axis -180 30 90   XYZ
    dof rx
    limits (-10.0 170.0)
  end
  begin
     id 27 
     name rwrist
     direction -1 -4.49007e-011 1.2807e-027   
     length 1.85255   
     axis 1.91374e-015 -90 -90   XYZ
    dof ry
    limits (-180.0 0.0)
  end
  begin
     id 28
     name rhand
     direction -1 -4.48851e-011 2.5614e-027   
     length 0.449136   
     axis -1.63439e-015 -90 -90   XYZ
    dof rx rz
    limits (-90.0 90.0)
           (-45.0 45.0)
  end
  begin
     id 29
     name rfingers
     direction -1 -4.49128e-011 5.1228e-027   
     length 0.362105   
     axis -3.26879e-015 -90 -90   XYZ
    dof rx
    limits (0.0 90.0)
  end
  begin
     id 30
     name rthumb
     direction -0.707107 -6.34851e-011 0.707107   
     length 0.519912   
     axis -90 -45 -2.85299e-015   XYZ
    dof rx rz
    limits (-45.0 45.0)
           (-45.0 45.0)
  end
:hierarchy
  begin
    root lhipjoint rhipjoint lowerback
    lhipjoint lfemur
    lfemur ltibia
    ltibia lfoot
    lfoot ltoes
    rhipjoint rfemur
    rfemur rtibia
    rtibia rfoot
    rfoot rtoes
    lowerback upperback
    upperback thorax
    thorax lowerneck lclavicle rclavicle
    lowerneck upperneck
    upperneck head
    lclavicle lhumerus
    lhumerus lradius
    lradius lwrist
    lwrist lhand lthumb
    lhand lfingers
    rclavicle rhumerus
    rhumerus rradius
    rradius rwrist
    rwrist rhand rthumb
    rhand rfingers
  end

#!OML:ASF I:\Actors\actors\Patient Classification 2\Patient 1\Session 1\actor1.ASF
:FULLY-SPECIFIED
:DEGREES
54
root -0.715249 18.6175 6.02798 -0.844745 -0.264765 -2.69746
lowerback 8.36709 0.139918 1.39136
upperback -1.94454 0.348511 0.152859
thorax -6.73229 0.118199 -0.671585
lowerneck -14.6243 -0.749823 0.202984
upperneck 23.1621 -1.65602 2.16093
head 9.77355 -0.502976 0.509372
rclavicle -8.02593e-015 1.19271e-015
rhumerus -46.3204 -3.28511 -87.7851
rradius 39.127
rwrist 11.7896
rhand -4.18106 -37.0157
rfingers 7.12502
rthumb 21.5801 -65.8334
lclavicle -8.02593e-015 1.19271e-015
lhumerus -43.0669 6.08124 87.9086
lradius 37.5494
lwrist -0.351761
lhand -4.55648 -19.4187
lfingers 7.12502
lthumb 21.2195 9.43991
rfemur 10.6583 1.84836 17.1646
rtibia -3.18055e-014
rfoot -19.8212 -13.2288
rtoes -3.488
lfemur -3.05343 -4.78767 -11.3483
ltibia 23.2178
lfoot -21.3205 8.92852
ltoes -55.9857
55
root -0.715183 18.6172 6.02715 -0.860393 -0.280559 -2.70353
lowerback 8.40276 0.153043 1.40361
upperback -1.92633 0.367854 0.153531
thorax -6.73294 0.127286 -0.680633
lowerneck -14.6339 -0.738217 0.264945
upperneck 23.1505 -1.64166 2.10742
head 9.77014 -0.497017 0.482042
rclavicle -7.25564e-015 -1.59028e-015
rhumerus -46.3172 -3.25901 -87.7949
rradius 39.1642
rwrist 11.8055
rhand -4.13747 -37.0966
rfingers 7.12502
rthumb 21.6219 -65.9094
lclavicle -7.25564e-015 -1.59028e-015
lhumerus -43.0322 6.0795 87.9016
lradius 37.563
lwrist -0.498021
lhand -4.43989 -19.3705
lfingers 7.12502
lthumb 21.3315 9.47543
rfemur 10.6667 1.8646 17.1739
rtibia -2.8625e-014
rfoot -19.8134 -13.2413
rtoes -3.60701
lfemur -3.04156 -4.80862 -11.3451
ltibia 23.2303
lfoot -21.3595 8.915
ltoes -55.8889
56
root -0.715441 18.6177 6.02591 -0.855502 -0.28373 -2.7412
lowerback 8.40183 0.165332 1.4542
upperback -1.89741 0.390347 0.166933
thorax -6.70108 0.13696 -0.698122
lowerneck -14.6923 -0.74664 0.310338
upperneck 23.1473 -1.65432 2.06283
head 9.77945 -0.503582 0.457078
rclavicle -3.05631e-015 9.93923e-016
rhumerus -46.2458 -3.23577 -87.788
rradius 39.1376
rwrist 11.7822
rhand -4.06751 -37.0487
rfingers 7.12502
rthumb 21.6891 -65.8537
lclavicle -3.05631e-015 9.93923e-016
lhumerus -42.9204 6.04005 87.9291
lradius 37.4616
lwrist -0.609944
lhand -4.40682 -19.3587
lfingers 7.12502
lthumb 21.3633 9.48369
rfemur 10.6519 1.86624 17.2192
rtibia 9.54166e-015
rfoot -19.7893 -13.2682
rtoes -3.91218
lfemur -3.05758 -4.81668 -11.3007
ltibia 23.2477
lfoot -21.3893 8.88926
ltoes -55.8521
57
root -0.715843 18.6175 6.02467 -0.866042 -0.279679 -2.81024
lowerback 8.3852 0.170204 1.53657
upperback -1.83723 0.406702 0.195621
thorax -6.62717 0.14321 -0.716431
lowerneck -14.8005 -0.764843 0.220893
upperneck 23.1674 -1.68421 2.16382
head 9.8092 -0.512646 0.503322
rclavicle 1.43436e-014 5.56597e-015
rhumerus -46.1204 -3.17233 -87.7827
rradius 39.0903
rwrist 11.7444
rhand -4.06487 -36.9173
rfingers 7.12502
rthumb 21.6917 -65.722
lclavicle 1.43436e-014 5.56597e-015
lhumerus -42.7376 5.95071 88.0125
lradius 37.2511
lwrist -0.526559
lhand -4.54911 -19.4805
lfingers 7.12502
lthumb 21.2266 9.37727
rfemur 10.6547 1.86047 17.3006
rtibia 3.18055e-015
rfoot -19.7614 -13.295
rtoes -3.96473
lfemur -3.06606 -4.80855 -11.2184
ltibia 23.2727
lfoot -21.4027 8.86054
ltoes -55.8013
58
root -0.716277 18.6174 6.02458 -0.871585 -0.274319 -2.85212
lowerback 8.39069 0.177278 1.59423
upperback -1.81001 0.423092 0.209584
thorax -6.60086 0.149639 -0.736486
lowerneck -14.8482 -0.787592 0.137026
upperneck 23.1802 -1.72041 2.26245
head 9.82496 -0.524911 0.547173
rclavicle 2.34193e-015 5.76476e-015
rhumerus -46.0685 -3.12844 -87.7922
rradius 39.0699
rwrist 11.7291
rhand -4.15737 -36.9571
rfingers 7.12502
rthumb 21.6028 -65.7721
lclavicle 2.34193e-015 5.76476e-015
lhumerus -42.7082 5.83678 88.0723
lradius 37.2901
lwrist -0.466972
lhand -4.58329 -19.4698
lfingers 7.12502
lthumb 21.1937 9.39169
rfemur 10.6606 1.85383 17.3516
rtibia 3.49861e-014
rfoot -19.7536 -13.3195
rtoes -4.01388
lfemur -3.07508 -4.80831 -11.1679
ltibia 23.2998
lfoot -21.399 8.8547
ltoes -55.7697
59
root -0.716152 18.6175 6.02444 -0.880966 -0.272317 -2.86342
lowerback 8.44458 0.185705 1.61065
upperback -1.82162 0.438086 0.221012
thorax -6.64365 0.15617 -0.736211
lowerneck -14.793 -0.787343 0.134357
upperneck 23.1496 -1.72313 2.28293
head 9.8039 -0.524744 0.554494
rclavicle -7.81472e-015 1.39149e-015
rhumerus -46.1121 -3.10743 -87.7872
rradius 39.1052
rwrist 11.7071
rhand -4.21027 -37.0307
rfingers 7.12502
rthumb 21.552 -65.8516
lclavicle -7.81472e-015 1.39149e-015
lhumerus -42.82 5.77951 88.0892
lradius 37.529
lwrist -0.484692
lhand -4.47049 -19.3605
lfingers 7.12502
lthumb 21.3021 9.4888
rfemur 10.6758 1.85209 17.3629
rtibia -7.95139e-015
rfoot -19.7728 -13.3246
rtoes -4.15266
lfemur -3.07202 -4.81512 -11.1572
ltibia 23.319
lfoot -21.4108 8.8635
ltoes -55.7836
60
root -0.715343 18.6176 6.02355 -0.891758 -0.277108 -2.84971
lowerback 8.48455 0.196776 1.60147
upperback -1.81735 0.452961 0.226297
thorax -6.66174 0.16381 -0.727841
lowerneck -14.7736 -0.785811 0.102554
upperneck 23.1374 -1.72639 2.33895
head 9.79677 -0.52284 0.579005
rclavicle 5.29885e-015 -2.18663e-015
rhumerus -46.177 -3.03445 -87.7926
rradius 39.2156
rwrist 11.6363
rhand -4.16614 -36.9662
rfingers 7.12502
rthumb 21.5944 -65.7822
lclavicle 5.29885e-015 -2.18663e-015
lhumerus -42.8621 5.75685 88.0918
lradius 37.6543
lwrist -0.514722
lhand -4.36703 -19.2993
lfingers 7.12502
lthumb 21.4015 9.53868
rfemur 10.6872 1.85824 17.3432
rtibia 1.74931e-014
rfoot -19.7801 -13.3122
rtoes -4.26443
lfemur -3.06259 -4.80149 -11.1787
ltibia 23.3266
lfoot -21.3855 8.89359
ltoes -55.904
